<?xml version="1.0" standalone="no"?>
<!DOCTYPE svg PUBLIC "-//W3C//DTD SVG 20010904//EN"
 "http://www.w3.org/TR/2001/REC-SVG-20010904/DTD/svg10.dtd">
<svg version="1.0" xmlns="http://www.w3.org/2000/svg"
 width="1961.000000pt" height="2048.000000pt" viewBox="0 0 1961.000000 2048.000000"
 preserveAspectRatio="xMidYMid meet">

<g transform="translate(0.000000,2048.000000) scale(0.100000,-0.100000)"
fill="#000000" stroke="none">
<path d="M13050 20470 c-80 -5 -323 -23 -540 -40 -217 -16 -2834 -210 -5815
-430 -2981 -220 -5465 -404 -5520 -410 -560 -62 -931 -339 -1090 -813 -19 -57
-45 -160 -58 -228 l-22 -124 0 -6415 c0 -5308 2 -6432 13 -6514 51 -375 216
-754 517 -1192 75 -107 2688 -3516 2849 -3714 250 -309 526 -483 871 -549 254
-50 503 -51 1225 -7 228 15 528 33 665 41 138 8 322 19 410 25 88 5 234 14
325 20 91 5 240 14 333 20 92 5 240 14 330 20 89 5 236 14 327 20 91 5 280 17
420 25 140 9 363 22 495 30 132 8 429 26 660 40 231 14 530 32 665 40 135 8
322 20 415 25 94 6 278 17 410 25 132 8 389 24 570 35 568 34 978 59 1320 80
182 11 742 45 1245 75 503 30 1061 64 1240 75 179 11 888 54 1575 95 688 41
1318 82 1400 90 845 88 1238 451 1305 1205 8 90 10 2110 8 7275 -3 6834 -4
7153 -21 7210 -72 241 -194 368 -717 742 -107 77 -571 404 -1030 728 -1084
764 -1777 1252 -2340 1650 -529 373 -656 460 -804 545 -268 154 -498 235 -799
281 -154 24 -595 33 -837 19z m572 -1155 c409 -48 745 -191 1125 -478 54 -40
517 -376 1028 -746 512 -370 945 -689 963 -709 66 -72 92 -163 57 -192 -24
-20 -129 -29 -920 -75 -744 -44 -1348 -80 -2170 -130 -225 -14 -599 -36 -830
-50 -231 -14 -604 -36 -830 -50 -225 -13 -637 -38 -915 -55 -278 -17 -651 -39
-830 -50 -319 -19 -1013 -61 -1340 -80 -91 -5 -237 -14 -325 -20 -88 -5 -272
-17 -410 -25 -137 -8 -437 -26 -665 -40 -228 -14 -716 -43 -1085 -65 -368 -22
-888 -54 -1155 -72 -539 -35 -945 -42 -1085 -19 -254 41 -435 118 -667 284
-107 77 -1720 1359 -1755 1396 -14 14 -33 44 -44 66 -61 131 34 244 252 299
47 11 685 62 2110 166 1124 82 3126 228 4449 325 1323 97 2880 211 3460 254
1139 85 1349 93 1582 66z m4216 -3510 c222 -52 352 -223 397 -520 13 -88 15
-820 15 -6142 0 -4352 -3 -6071 -11 -6145 -41 -379 -193 -588 -494 -676 -133
-40 -148 -41 -1125 -97 -239 -14 -707 -41 -1040 -60 -333 -19 -801 -46 -1040
-60 -239 -14 -547 -32 -685 -40 -239 -14 -506 -30 -1295 -75 -195 -11 -506
-29 -690 -40 -184 -11 -533 -31 -775 -45 -242 -14 -552 -32 -690 -40 -137 -8
-410 -24 -605 -35 -195 -11 -467 -27 -605 -35 -137 -8 -448 -26 -690 -40 -242
-14 -552 -32 -690 -40 -273 -16 -908 -53 -1985 -115 -382 -22 -742 -42 -800
-46 -58 -3 -161 -1 -230 5 -262 24 -414 83 -541 210 -121 121 -177 260 -199
490 -14 152 -14 12015 1 12170 36 386 196 569 544 621 39 6 1647 102 3575 215
1928 113 3964 232 4525 265 561 33 1486 87 2055 120 569 34 1436 85 1925 114
992 60 1063 62 1153 41z"/>
<path d="M15690 13589 c-256 -15 -703 -42 -995 -59 -291 -17 -685 -40 -875
-51 -190 -11 -373 -26 -407 -34 -255 -59 -455 -242 -519 -475 -17 -62 -27
-281 -13 -294 3 -3 223 -30 490 -61 266 -30 499 -57 517 -60 l32 -6 0 -2747
c0 -2351 -2 -2744 -14 -2732 -12 13 -1095 1670 -3529 5400 -274 421 -505 771
-512 779 -11 11 -74 9 -396 -13 -354 -24 -1621 -109 -2320 -156 -209 -14 -318
-26 -375 -40 -250 -64 -417 -222 -505 -480 -31 -90 -33 -103 -33 -242 -1 -86
3 -151 9 -156 6 -5 222 -26 480 -46 259 -20 480 -39 493 -42 l22 -4 0 -3923 0
-3922 -357 -98 c-197 -54 -386 -112 -420 -128 -144 -69 -243 -251 -243 -446 0
-47 5 -102 11 -123 11 -36 13 -37 53 -33 22 2 631 37 1351 78 1777 100 1664
91 1847 159 125 47 192 90 288 186 88 88 140 170 173 275 20 60 37 164 28 169
-3 2 -278 66 -611 141 -333 75 -608 139 -612 142 -10 6 -10 5923 0 5923 4 0
882 -1377 1952 -3061 1857 -2922 1951 -3068 2085 -3232 390 -480 567 -590 993
-617 410 -26 837 83 1366 349 l151 76 3 4383 c1 2410 3 4382 5 4382 34 0 709
144 741 159 102 45 186 155 219 286 30 117 30 284 0 403 -6 27 30 28 -573 -9z"/>
</g>
</svg>
